# xmcd CD database file
#
# Track frame offsets:
#	150
#	30135
#	47983
#	69755
#	85371
#	99163
#	129755
#	161848
#	188500
#	206971
#	229380
#
# Disc length: 3395 seconds
#
# Revision: 0
# Processed by: cddbd v1.5.2PL0 Copyright (c) Steve Scherf et al.
# Submitted via: CDex 1.70beta2
#
DISCID=860d410b
DTITLE=Joe Bonamassa - Driving Towards Daylight
DYEAR=1900
DGENRE=Blues
TTITLE0=Dislocated Boy
TTITLE1=Stones In My Passway
TTITLE2=Driving Towards The Daylight
TTITLE3=Who's Been Talking
TTITLE4=I Got All You Need
TTITLE5=A Place In My Heart
TTITLE6=Lonely Town Lonely Street
TTITLE7=Heavenly Soul
TTITLE8=New Coat Of Paint
TTITLE9=Somewhere Trouble Don`t Go
TTITLE10=Too Much Ain`t Enough Love feat Jimmy Barnes
EXTD=
EXTT0=
EXTT1=
EXTT2=
EXTT3=
EXTT4=
EXTT5=
EXTT6=
EXTT7=
EXTT8=
EXTT9=
EXTT10=
PLAYORDER=
